<svg xmlns="http://www.w3.org/2000/svg" width="21" height="21" viewBox="0 0 21 21"><g id="bar" transform="translate(-2124 -2665)"><g id="&#x41A;&#x43E;&#x43D;&#x442;&#x443;&#x440;_6562" data-name="&#x41A;&#x43E;&#x43D;&#x442;&#x443;&#x440; 6562" transform="translate(2124 2665)" fill="none"><path d="M2.5,0A2.5,2.5,0,1,1,0,2.5,2.5,2.5,0,0,1,2.5,0Z" stroke="none"></path><path d="M 2.5 1.5 C 1.948600053787231 1.5 1.5 1.948600053787231 1.5 2.5 C 1.5 3.051399946212769 1.948600053787231 3.5 2.5 3.5 C 3.051399946212769 3.5 3.5 3.051399946212769 3.5 2.5 C 3.5 1.948600053787231 3.051399946212769 1.5 2.5 1.5 M 2.5 0 C 3.880710124969482 0 5 1.119290113449097 5 2.5 C 5 3.880710124969482 3.880710124969482 5 2.5 5 C 1.119290113449097 5 0 3.880710124969482 0 2.5 C 0 1.119290113449097 1.119290113449097 0 2.5 0 Z" stroke="none" fill="#10271d"></path></g><g id="&#x41A;&#x43E;&#x43D;&#x442;&#x443;&#x440;_6563" data-name="&#x41A;&#x43E;&#x43D;&#x442;&#x443;&#x440; 6563" transform="translate(2132 2665)" fill="none"><path d="M2.5,0A2.5,2.5,0,1,1,0,2.5,2.5,2.5,0,0,1,2.5,0Z" stroke="none"></path><path d="M 2.5 1.5 C 1.948600053787231 1.5 1.5 1.948600053787231 1.5 2.5 C 1.5 3.051399946212769 1.948600053787231 3.5 2.5 3.5 C 3.051399946212769 3.5 3.5 3.051399946212769 3.5 2.5 C 3.5 1.948600053787231 3.051399946212769 1.5 2.5 1.5 M 2.5 0 C 3.880710124969482 0 5 1.119290113449097 5 2.5 C 5 3.880710124969482 3.880710124969482 5 2.5 5 C 1.119290113449097 5 0 3.880710124969482 0 2.5 C 0 1.119290113449097 1.119290113449097 0 2.5 0 Z" stroke="none" fill="#10271d"></path></g><g id="&#x41A;&#x43E;&#x43D;&#x442;&#x443;&#x440;_6564" data-name="&#x41A;&#x43E;&#x43D;&#x442;&#x443;&#x440; 6564" transform="translate(2140 2665)" fill="none"><path d="M2.5,0A2.5,2.5,0,1,1,0,2.5,2.5,2.5,0,0,1,2.5,0Z" stroke="none"></path><path d="M 2.5 1.5 C 1.948600053787231 1.5 1.5 1.948600053787231 1.5 2.5 C 1.5 3.051399946212769 1.948600053787231 3.5 2.5 3.5 C 3.051399946212769 3.5 3.5 3.051399946212769 3.5 2.5 C 3.5 1.948600053787231 3.051399946212769 1.5 2.5 1.5 M 2.5 0 C 3.880710124969482 0 5 1.119290113449097 5 2.5 C 5 3.880710124969482 3.880710124969482 5 2.5 5 C 1.119290113449097 5 0 3.880710124969482 0 2.5 C 0 1.119290113449097 1.119290113449097 0 2.5 0 Z" stroke="none" fill="#10271d"></path></g><g id="&#x41A;&#x43E;&#x43D;&#x442;&#x443;&#x440;_6567" data-name="&#x41A;&#x43E;&#x43D;&#x442;&#x443;&#x440; 6567" transform="translate(2124 2673)" fill="none"><path d="M2.5,0A2.5,2.5,0,1,1,0,2.5,2.5,2.5,0,0,1,2.5,0Z" stroke="none"></path><path d="M 2.5 1.5 C 1.948600053787231 1.5 1.5 1.948600053787231 1.5 2.5 C 1.5 3.051399946212769 1.948600053787231 3.5 2.5 3.5 C 3.051399946212769 3.5 3.5 3.051399946212769 3.5 2.5 C 3.5 1.948600053787231 3.051399946212769 1.5 2.5 1.5 M 2.5 0 C 3.880710124969482 0 5 1.119290113449097 5 2.5 C 5 3.880710124969482 3.880710124969482 5 2.5 5 C 1.119290113449097 5 0 3.880710124969482 0 2.5 C 0 1.119290113449097 1.119290113449097 0 2.5 0 Z" stroke="none" fill="#10271d"></path></g><g id="&#x41A;&#x43E;&#x43D;&#x442;&#x443;&#x440;_6566" data-name="&#x41A;&#x43E;&#x43D;&#x442;&#x443;&#x440; 6566" transform="translate(2132 2673)" fill="none"><path d="M2.5,0A2.5,2.5,0,1,1,0,2.5,2.5,2.5,0,0,1,2.5,0Z" stroke="none"></path><path d="M 2.5 1.5 C 1.948600053787231 1.5 1.5 1.948600053787231 1.5 2.5 C 1.5 3.051399946212769 1.948600053787231 3.5 2.5 3.5 C 3.051399946212769 3.5 3.5 3.051399946212769 3.5 2.5 C 3.5 1.948600053787231 3.051399946212769 1.5 2.5 1.5 M 2.5 0 C 3.880710124969482 0 5 1.119290113449097 5 2.5 C 5 3.880710124969482 3.880710124969482 5 2.5 5 C 1.119290113449097 5 0 3.880710124969482 0 2.5 C 0 1.119290113449097 1.119290113449097 0 2.5 0 Z" stroke="none" fill="#10271d"></path></g><g id="&#x41A;&#x43E;&#x43D;&#x442;&#x443;&#x440;_6565" data-name="&#x41A;&#x43E;&#x43D;&#x442;&#x443;&#x440; 6565" transform="translate(2140 2673)" fill="none"><path d="M2.5,0A2.5,2.5,0,1,1,0,2.5,2.5,2.5,0,0,1,2.5,0Z" stroke="none"></path><path d="M 2.5 1.5 C 1.948600053787231 1.5 1.5 1.948600053787231 1.5 2.5 C 1.5 3.051399946212769 1.948600053787231 3.5 2.5 3.5 C 3.051399946212769 3.5 3.5 3.051399946212769 3.5 2.5 C 3.5 1.948600053787231 3.051399946212769 1.5 2.5 1.5 M 2.5 0 C 3.880710124969482 0 5 1.119290113449097 5 2.5 C 5 3.880710124969482 3.880710124969482 5 2.5 5 C 1.119290113449097 5 0 3.880710124969482 0 2.5 C 0 1.119290113449097 1.119290113449097 0 2.5 0 Z" stroke="none" fill="#10271d"></path></g><g id="&#x41A;&#x43E;&#x43D;&#x442;&#x443;&#x440;_6568" data-name="&#x41A;&#x43E;&#x43D;&#x442;&#x443;&#x440; 6568" transform="translate(2124 2681)" fill="none"><path d="M2.5,0A2.5,2.5,0,1,1,0,2.5,2.5,2.5,0,0,1,2.5,0Z" stroke="none"></path><path d="M 2.5 1.5 C 1.948600053787231 1.5 1.5 1.948600053787231 1.5 2.5 C 1.5 3.051399946212769 1.948600053787231 3.5 2.5 3.5 C 3.051399946212769 3.5 3.5 3.051399946212769 3.5 2.5 C 3.5 1.948600053787231 3.051399946212769 1.5 2.5 1.5 M 2.5 0 C 3.880710124969482 0 5 1.119290113449097 5 2.5 C 5 3.880710124969482 3.880710124969482 5 2.5 5 C 1.119290113449097 5 0 3.880710124969482 0 2.5 C 0 1.119290113449097 1.119290113449097 0 2.5 0 Z" stroke="none" fill="#10271d"></path></g><g id="&#x41A;&#x43E;&#x43D;&#x442;&#x443;&#x440;_6569" data-name="&#x41A;&#x43E;&#x43D;&#x442;&#x443;&#x440; 6569" transform="translate(2132 2681)" fill="none"><path d="M2.5,0A2.5,2.5,0,1,1,0,2.5,2.5,2.5,0,0,1,2.5,0Z" stroke="none"></path><path d="M 2.5 1.5 C 1.948600053787231 1.5 1.5 1.948600053787231 1.5 2.5 C 1.5 3.051399946212769 1.948600053787231 3.5 2.5 3.5 C 3.051399946212769 3.5 3.5 3.051399946212769 3.5 2.5 C 3.5 1.948600053787231 3.051399946212769 1.5 2.5 1.5 M 2.5 0 C 3.880710124969482 0 5 1.119290113449097 5 2.5 C 5 3.880710124969482 3.880710124969482 5 2.5 5 C 1.119290113449097 5 0 3.880710124969482 0 2.5 C 0 1.119290113449097 1.119290113449097 0 2.5 0 Z" stroke="none" fill="#10271d"></path></g><g id="&#x41A;&#x43E;&#x43D;&#x442;&#x443;&#x440;_6570" data-name="&#x41A;&#x43E;&#x43D;&#x442;&#x443;&#x440; 6570" transform="translate(2140 2681)" fill="none"><path d="M2.5,0A2.5,2.5,0,1,1,0,2.5,2.5,2.5,0,0,1,2.5,0Z" stroke="none"></path><path d="M 2.5 1.5 C 1.948600053787231 1.5 1.5 1.948600053787231 1.5 2.5 C 1.5 3.051399946212769 1.948600053787231 3.5 2.5 3.5 C 3.051399946212769 3.5 3.5 3.051399946212769 3.5 2.5 C 3.5 1.948600053787231 3.051399946212769 1.5 2.5 1.5 M 2.5 0 C 3.880710124969482 0 5 1.119290113449097 5 2.5 C 5 3.880710124969482 3.880710124969482 5 2.5 5 C 1.119290113449097 5 0 3.880710124969482 0 2.5 C 0 1.119290113449097 1.119290113449097 0 2.5 0 Z" stroke="none" fill="#10271d"></path></g></g></svg>